# xmcd
# 
# Track frame offsets:
#     150
#     12913
#     31266
#     47000
#     62770
#     82177
#     102536
#     124229
#     144916
#     158740
#     177057
#     193652
# 
# Disc length: 2801
# 
# Revision: 2
# Processed by: cddbd v1.5.2PL0 Copyright (c) Steve Scherf et al.
# Submitted via: BonkEnc v1.0.6
# 
DISCID=9d0aef0c
DTITLE=Various Artist - Rolling Stone New Noises Vol. 70
DYEAR=2005
DGENRE=Alternative Pop/Rock
TTITLE0=Saturday Looks Good To Me - Since You Stole My Heart
TTITLE1=The Killers - Jenny Was A Friend Of Mine
TTITLE2=The Arcade Fire - Neighborhood # 2 (Laika)
TTITLE3=Herman Düne - Not On Top
TTITLE4=Antony And The Johnsons - Hope There's Someone
TTITLE5=Martin Dean - Just A Little Bit Of Love
TTITLE6=Fink - Durchreise
TTITLE7=Kettcar - Balu
TTITLE8=Anne McCue - Ghandi
TTITLE9=Benny Sings - Below The Waterfall
TTITLE10=Monta - Coma (Demo Version)
TTITLE11=Wolke - Slow
EXTD=YEAR: 2005
EXTT0=
EXTT1=
EXTT2=
EXTT3=
EXTT4=
EXTT5=
EXTT6=
EXTT7=
EXTT8=
EXTT9=
EXTT10=
EXTT11=
PLAYORDER=
